<svg xmlns="http://www.w3.org/2000/svg" width="668.086" height="649.047" viewBox="0 0 668.086 649.047">
  <g id="Group_425" data-name="Group 425" transform="translate(-176.184 -164.492)">
    <path id="Path_3317" data-name="Path 3317" d="M413.725,264.3v7.67l-19.5-9.7-38.464,7.671v-7.22l39.124-7.792Z" fill="#ff6010"/>
    <g id="Group_423" data-name="Group 423">
      <rect id="Rectangle_696" data-name="Rectangle 696" width="27.607" height="27.607" transform="translate(632.375 459.803)" fill="#440c0c"/>
      <rect id="Rectangle_697" data-name="Rectangle 697" width="27.607" height="27.607" transform="translate(664.873 459.803)" fill="#440c0c"/>
      <rect id="Rectangle_698" data-name="Rectangle 698" width="27.607" height="27.607" transform="translate(632.375 426.435)" fill="#440c0c"/>
      <rect id="Rectangle_699" data-name="Rectangle 699" width="27.607" height="27.607" transform="translate(664.873 426.435)" fill="#440c0c"/>
    </g>
    <path id="Path_3318" data-name="Path 3318" d="M671.1,333.9l-9.111-11.286-14.935,7.253-9.319,4.528-37.112-39.838-31.442-33.727-7.714-8.286-13.485-14.474-20.8,9.429-116.2,52.663v32.365l-16.958,7.692V269.981l-33.474,6.671V318.16l-46.981,21.287-6.187,7.671-.011.011L266.1,398.187,194.92,486.27l7.671,13.418H353.523l191.925-228.1,1.989-2.363.956,1.022,38.5,41.31,30.485,32.728-93.7,45.508L445.353,486.72l7.407,12.968h84.368L641.651,370.339l13.738-17,5.319-6.572L784.276,499.688h20.8Z" fill="#ff6010"/>
    <path id="Path_3319" data-name="Path 3319" d="M382.621,184.51a28.112,28.112,0,0,1-1.772,9.792,38.443,38.443,0,0,1-5.193,8.727,55.7,55.7,0,0,0-6.023,9.666,27.752,27.752,0,0,0-2.482,11.51,54.3,54.3,0,0,0,1.1,11.218,28.36,28.36,0,0,0,1.758,5.4,15.429,15.429,0,0,0,1.455,2.464,5.676,5.676,0,0,0,2.118,1.849,5.812,5.812,0,0,1-1.4-2.261,14.72,14.72,0,0,1-.732-2.535,31.386,31.386,0,0,1-.527-5.267,74.16,74.16,0,0,1,.533-10.6,26.944,26.944,0,0,1,2.872-9.534,67.9,67.9,0,0,1,5.774-8.7c1.072-1.494,2.155-3.073,3.153-4.744a30.022,30.022,0,0,0,2.475-5.427,28.637,28.637,0,0,0,1.187-11.716A33.437,33.437,0,0,0,384,173.274a23.664,23.664,0,0,0-6.931-8.782A33.376,33.376,0,0,1,382.621,184.51Z" fill="#440c0c"/>
    <path id="Path_3320" data-name="Path 3320" d="M391.7,187.422a25.613,25.613,0,0,1-3.549,18.39c-1.6,2.865-3.436,5.71-5.245,8.658a70.543,70.543,0,0,0-4.991,9.4,31.554,31.554,0,0,0-1.686,5.309A18.441,18.441,0,0,0,375.8,232c-.032.476-.093.966-.1,1.425l.009,1.366a39.205,39.205,0,0,0,6.14,20.133,68.613,68.613,0,0,1-1.766-10.081,48.605,48.605,0,0,1-.057-9.9c.491-6.234,4.053-11.786,7.571-17.618,1.763-2.92,3.6-5.89,5.171-9.125q.6-1.2,1.115-2.478a26.61,26.61,0,0,0,.951-2.6c.315-.864.491-1.823.724-2.728.146-.937.3-1.884.363-2.822a27.53,27.53,0,0,0-1.617-10.8,31.89,31.89,0,0,0-5.067-9.238A50.919,50.919,0,0,1,391.7,187.422Z" fill="#440c0c"/>
    <g id="Group_424" data-name="Group 424">
      <path id="Path_3321" data-name="Path 3321" d="M324.741,664.088a92.715,92.715,0,0,1-28.692,17.075,94.215,94.215,0,0,1-33.113,5.879,77.266,77.266,0,0,1-24.459-3.715,64.152,64.152,0,0,1-37.724-33.443q-5.833-12.792-5.832-29.163a65.27,65.27,0,0,1,5.879-27.14,62.889,62.889,0,0,1,37.3-34.1,76.491,76.491,0,0,1,25.212-4.046q17.309,0,30.151,6.915t22.248,21.4l-15.993,11.759q-5.739-12.227-14.017-18.343a31.006,31.006,0,0,0-18.909-6.116q-16.275,0-25.212,13.124t-8.937,37.112q0,21.825,10.066,35.419T268.86,670.3a34.1,34.1,0,0,0,11.289-1.834,38.951,38.951,0,0,0,10.254-5.5V627.87H324.74v36.218Z" fill="#440c0c"/>
      <path id="Path_3322" data-name="Path 3322" d="M329.163,683.938l43.18-125.776H406.4l46.1,125.776H415.052l-13.265-37.159H359.548l-12.511,37.159Zm35.842-53.151h31.044l-16.275-45.062Z" fill="#440c0c"/>
      <path id="Path_3323" data-name="Path 3323" d="M467.074,683.938V558.161H500l28.315,67.827,28.129-67.827h34.524V683.937h-35.09V601.246l-33.959,82.691h-3.386l-33.208-79.022v79.022H467.074Z" fill="#440c0c"/>
      <path id="Path_3324" data-name="Path 3324" d="M639.6,683.938V624.39l-36.783-66.228h39.135l24.458,48.165,26.436-48.165H711.1l-35.843,64.346v61.43Z" fill="#440c0c"/>
      <path id="Path_3325" data-name="Path 3325" d="M732.454,651.952q3.856,9.126,9.643,14.017a19.293,19.293,0,0,0,12.748,4.892,16.71,16.71,0,0,0,11.759-4.234A13.824,13.824,0,0,0,771.213,656a14.281,14.281,0,0,0-3.481-9.361q-3.48-4.184-11.382-8.514l-4.986-2.727q-17.122-9.125-20.6-12.135-7.151-6.208-10.114-12.371a32.985,32.985,0,0,1-2.963-14.44q0-18.155,12.183-29.681t31.75-11.523q13.734,0,24.083,6.255a42.532,42.532,0,0,1,16.181,18.015l-14.3,9.972q-3.765-9.031-9.549-13.547a21.731,21.731,0,0,0-13.782-4.516,15.447,15.447,0,0,0-11.053,4.139,13.656,13.656,0,0,0-4.375,10.348,13.211,13.211,0,0,0,3.622,9.22q3.621,3.951,13.97,9.219l2.352,1.223q19.282,9.6,23.236,12.889a36.553,36.553,0,0,1,10.019,12.088,33.814,33.814,0,0,1,3.058,14.817q0,18.534-12.935,30.2t-33.631,11.665q-14.77,0-26.1-6.491A42.622,42.622,0,0,1,715.147,662.4Zm6.586,72.061v-9.407q7.336,1.694,13.5,2.68a65.3,65.3,0,0,0,9.831.989q5.645,0,8.372-1.929a6.618,6.618,0,0,0,2.729-5.785,6.8,6.8,0,0,0-3.01-6.115q-3.013-1.976-9.5-1.975-1.883,0-2.963.046t-2.023.047V683.938h7.338v9.595h2.727q10.254,0,15.617,4.327t5.361,12.7q0,8.559-6.114,13.123t-17.591,4.563a64.669,64.669,0,0,1-10.912-1.082A126.429,126.429,0,0,1,739.04,724.013Z" fill="#440c0c"/>
    </g>
    <path id="Path_3326" data-name="Path 3326" d="M176.184,800.111c3.036-1.878,6.142-3.651,9.28-5.36,3.133-1.724,6.312-3.36,9.5-4.983,6.4-3.2,12.88-6.263,19.462-9.1A426.03,426.03,0,0,1,254.755,765.5a390,390,0,0,1,84.926-17.369l5.447-.446c1.816-.146,3.64-.207,5.461-.314l5.467-.287c1.824-.076,3.652-.091,5.479-.139l5.484-.1c1.829,0,3.659.051,5.49.075l5.494.091c1.831.068,3.662.177,5.495.264l5.5.279c1.831.131,3.661.307,5.493.459l5.495.483c1.81.193,3.578.432,5.369.646l10.717,1.32,5.36.661,5.342.787c7.12,1.064,14.257,2.068,21.329,3.4l10.631,1.889c3.541.64,7.057,1.383,10.587,2.07,3.524.7,7.058,1.4,10.561,2.177l10.51,2.337c3.511.763,6.995,1.584,10.477,2.409l10.45,2.465,41.352,10.325c3.43.888,6.837,1.664,10.256,2.5l5.126,1.236c1.709.418,3.413.766,5.12,1.153,3.413.747,6.826,1.529,10.239,2.25,3.415.655,6.824,1.339,10.234,2.029l2.558.515,2.561.434,5.123.859,5.125.861c1.708.3,3.422.46,5.133.7l10.276,1.314,10.3.947,2.577.238c.859.091,1.721.092,2.581.143l5.167.235,5.17.238c.863.031,1.723.1,2.588.1l2.594.007,10.389.054c1.73.041,3.474-.058,5.214-.113l5.224-.185c27.9-.925,55.977-4.293,84-8.235,28.035-4.023,56.023-8.928,84.049-14.272-13.344,5.083-26.928,9.5-40.6,13.662-13.664,4.187-27.479,7.867-41.373,11.331-27.828,6.729-56.054,12.258-84.947,14.95l-5.42.492c-1.808.157-3.61.358-5.436.418l-10.935.549-2.737.13c-.912.039-1.829.008-2.743.015l-5.492-.013-5.5-.016c-.916-.014-1.834.02-2.748-.035l-2.742-.132-10.978-.535c-1.829-.1-3.643-.317-5.464-.484l-5.461-.532c-1.817-.2-3.65-.319-5.455-.572l-5.42-.736-5.422-.738-2.71-.375-2.686-.453c-3.582-.6-7.164-1.208-10.742-1.845-3.556-.682-7.09-1.42-10.637-2.129-1.767-.366-3.554-.7-5.306-1.092l-5.266-1.166c-3.5-.789-7.042-1.529-10.513-2.359q-10.448-2.477-20.814-5.034l-20.679-5.05c-13.732-3.347-27.445-6.634-41.2-9.517-3.436-.734-6.865-1.527-10.308-2.215l-10.335-2.034c-3.445-.679-6.888-1.379-10.351-1.946-3.46-.589-6.911-1.231-10.368-1.846l-5.185-.928-5.2-.8-10.412-1.609c-1.732-.261-3.48-.553-5.2-.789l-5.109-.654c-1.7-.215-3.406-.456-5.114-.652l-5.14-.48c-1.714-.155-3.427-.333-5.145-.471l-5.164-.3c-1.722-.1-3.444-.218-5.168-.295l-5.181-.157c-1.728-.049-3.456-.133-5.186-.155l-5.194-.011c-1.732.007-3.465-.033-5.2.012l-5.2.141a453.472,453.472,0,0,0-83.126,10.482c-13.771,2.924-27.439,6.484-41.027,10.458q-10.185,3-20.28,6.4l-5.044,1.716-5.025,1.783C182.839,797.559,179.5,798.789,176.184,800.111Z" fill="#ff6010"/>
  </g>
</svg>
