<svg xmlns="http://www.w3.org/2000/svg" width="407.048" height="387.514" viewBox="0 0 407.048 387.514">
  <g id="Group_342" data-name="Group 342" transform="translate(5126.931 18483.137)">
    <g id="Group_329" data-name="Group 329" transform="translate(-5126.929 -18483.137)">
      <g id="Ellipse_17" data-name="Ellipse 17" transform="translate(47.31 27.778)" fill="#fdae86" stroke="#cf8662" stroke-width="9">
        <circle cx="179.869" cy="179.869" r="179.869" stroke="none"/>
        <circle cx="179.869" cy="179.869" r="175.369" fill="none"/>
      </g>
      <path id="Path_5020" data-name="Path 5020" d="M-64.1,128.57a6.688,6.688,0,0,0-4.45-2.261l-46.371.216c-5.086-.427-5.549-1.342-9.493-4.164-.794-.568-4.33-3.781-6.321-10.841-1.293-4.581-1.293-12.428-1.293-17.177,0-17.315,1.18-32.139,0-42.23-48.483-2.578-100.244-.045-149.181-.291-28.249-.142-20.125,5.595-20.125,70.173l-.026,209.388c-.085,12.616-.592,9.071,0,15.346s-.234,7.525,2.369,9.756a12.129,12.129,0,0,0,8.293,3.367c41.006,2.18,210.966.486,226.785-.371-.245-.721,3.379-.147,3.359-4.571-.034-7.688-.628-50.6-.732-57.518-.594-39.851-2.314-132.729-.818-162.746.2-4.089-.384-3.993-2-6.077Z" transform="translate(412.73 -7.602)" fill="#fafafc" stroke="#cf8662" stroke-width="5" fill-rule="evenodd"/>
      <path id="Path_5019" data-name="Path 5019" d="M-221.359,150.871l13.573-7.767a139.307,139.307,0,0,1,23.6-4.221c11.656-.989,24.278.094,30.605,3.615,3.157,1.757,12.07,4.224,15.74,6.89l13.083,11.213c5.33,5,10.914,10.622,14.17,16.932l3.087,4.873c.156.266.352.6.5.879,4.759,8.827,8.409,25.232,8.1,40.635-.207,10.236-.874,16.737-6.7,31.651s-19.736,22.074-26.334,27.962c-9.016,6.328-24.143,12.184-34.221,13.252a112.627,112.627,0,0,1-38.991-3.073c-4.738-1.194-16.137-6.876-28.564-19.05s-16.192-20.779-21.145-29.647c-.14-.25-.371-.561-.51-.82-6.092-11.306-5.76-29-2.952-41.5,1.658-7.383,6.633-20.747,13.8-30.319A96.707,96.707,0,0,1-221.359,150.871Zm143.647,78.306c1.186-14.866.8-21.991-1.71-33.868s-11.263-26.755-11.43-26.98a108.6,108.6,0,0,0-16-21.674,117.447,117.447,0,0,0-23.573-19.081c-6.637-4.285-13.163-7.61-31.986-9.577s-40.309.468-43.307,1.709c0,0-18.028,6.864-30.689,14.676s-11.6,7.045-19.954,16.574c-5.685,7-11.577,16.077-11.811,16.412-4.03,5.206-2.669,2.462-4.615,8.629-.974,3.089-7.622,14.907-8.181,24.676-.22,3.847-.234,8.292-.339,12.206-.8,29.8,4.264,36.315,5.1,39.354,2.128,7.785,5.127,12.2,9.243,18.412,0,0,9.322,14.785,18.314,23.829A77.572,77.572,0,0,0-227.4,309.06c6.2,2.887,12.417,4.149,21.664,7.62,14.716,3.866,45.358,5.355,60.131-2.769a251.644,251.644,0,0,0,26.032-12.866c1.875-1.036,5.492-2.508,8.937-.511,4.985,2.89,40.13,43.2,40.312,43,2.148,2.022,19.75,18.463,24.934,19.533,10.877,2.248,14.582-8.085,14.1-12.225-.638-5.44-2.974-6.363-5.6-9.551-.247-.3-1.006-1.178-1.263-1.477l-14.086-14.058c-.211-.2-.5-.473-.709-.68l-2.574-2.928c-.185-.191-.441-.492-.631-.674L-81.014,296.71c-.172-.189-.431-.487-.613-.665l-7.761-7.077c-5.379-5.949-10.793-7.256-2.5-17.879C-89.584,268.146-78.9,244.043-77.712,229.177Z" transform="translate(411.736 -1.845)" fill="#fdae86" stroke="#cf8662" stroke-width="5" fill-rule="evenodd"/>
      <path id="Path_5009" data-name="Path 5009" d="M-263.926,107.1c.141-7.735,1.1-7.176-4.688-7.589-.131-2.951.8-4.9-.52-5.246a14.317,14.317,0,0,0-7.719,1.4c-2.91,1.558-3,2.454-3.921,4.828-2.006,5.172-1.945,13.413,10.02,11.217,4.257-.781,5.262-3.011,6.827-4.611Z" transform="translate(471.862 116.014)" fill="#cf8662" fill-rule="evenodd"/>
      <path id="Path_5010" data-name="Path 5010" d="M-260.485,110c4.488,1.144,8.019,1.172,11.828-1.172s3.519-6.806,3.41-8.2c-.092-1.508-2.616-.818-6.294-1.077-.089-2.016-.032-4.279-1.591-5-2.176-1.033-6.794,1.022-6.794,1.022a10.848,10.848,0,0,0-5.034,6.97c-.345,1.914-.012,6.315,4.475,7.459Z" transform="translate(519.213 115.999)" fill="#cf8662" fill-rule="evenodd"/>
      <path id="Path_5012" data-name="Path 5012" d="M-282.854,101.56c5.93-.462,14.481-3.656,16.407-4.991a6.41,6.41,0,0,0,.761-.5c2.4-2.335,1.829-3.628,1.991-5.353-11.09-.621-8.251,1.91-10.423,3.276-2.921,1.837-5.358.805-7.739,4.907l-1,2.665Z" transform="translate(464.79 102.236)" fill="#cf8662" fill-rule="evenodd"/>
      <path id="Path_5013" data-name="Path 5013" d="M-262.195,93.192c1.846,3.92-.562,1.2,3.018,3.649,5.2,3.564,12.193,3.7,12.193,3.7a11.029,11.029,0,0,0,3.74,0,2.756,2.756,0,0,0,1.807-1.573c-7.7-1.222-13.536-6.729-13.566-6.747C-262.569,87.718-261.942,92.988-262.195,93.192Z" transform="translate(526.385 103.078)" fill="#cf8662" fill-rule="evenodd"/>
      <g id="Group_327" data-name="Group 327" transform="translate(0 0)">
        <path id="Path_5018" data-name="Path 5018" d="M.246,19.895c2.49,18.14,34.334,16.72,31.629-5.663C29.385-6.37-3.132-4.708.246,19.895Z" transform="matrix(0.966, 0.259, -0.259, 0.966, 8.379, 200.399)" fill="#fdae86" fill-rule="evenodd"/>
        <path id="Path_5017" data-name="Path 5017" d="M.111,8.968c1.122,8.177,15.477,7.537,14.258-2.553C13.246-2.872-1.412-2.122.111,8.968Z" transform="matrix(0.966, 0.259, -0.259, 0.966, 70.189, 49.416)" fill="#fdae86" fill-rule="evenodd"/>
        <path id="Path_5016" data-name="Path 5016" d="M6.73,2.552C2.126,5.717-2.888,9.643,2.016,18.49a12.733,12.733,0,0,0,18.216,4.027C33.945,13.195,20.816-7.13,6.73,2.552Z" transform="matrix(0.966, 0.259, -0.259, 0.966, 367.031, 37.899)" fill="#fdae86" fill-rule="evenodd"/>
        <path id="Path_5015" data-name="Path 5015" d="M4.341,1.646C1.371,3.688-1.863,6.221,1.3,11.928a8.214,8.214,0,0,0,11.751,2.6C21.9,8.512,13.429-4.6,4.341,1.646Z" transform="matrix(0.966, 0.259, -0.259, 0.966, 390.829, 0)" fill="#fdae86" fill-rule="evenodd"/>
      </g>
      <path id="Path_5022" data-name="Path 5022" d="M8.344,0H114.856a4.347,4.347,0,1,1,0,8.695H8.344A4.347,4.347,0,0,1,8.344,0Z" transform="translate(138.949 79.945)" fill="#cf8662"/>
      <path id="Path_5021" data-name="Path 5021" d="M7.252,0H52.993a4.347,4.347,0,0,1,0,8.695H7.252A4.347,4.347,0,0,1,7.252,0Z" transform="translate(138.855 102.768)" fill="#cf8662"/>
      <path id="Path_5025" data-name="Path 5025" d="M-11.588-39.77,57.022,33.523c2.4,0,0,.121,0,2.522s-22.27-2.522-24.671-2.522L-2.4,32.262c-2.4,0-10.8-26.408-10.8-28.809S-13.989-39.77-11.588-39.77Z" transform="translate(293.42 85.187)" fill="#cf8662"/>
      <path id="Path_5023" data-name="Path 5023" d="M7.252,0H39.657A4.347,4.347,0,0,1,44,4.347c0,2.4,9.05,4.347,6.649,4.347H7.252A4.347,4.347,0,0,1,7.252,0Z" transform="translate(138.855 302.618)" fill="#cf8662"/>
      <ellipse id="Ellipse_18" data-name="Ellipse 18" cx="13.042" cy="6.521" rx="13.042" ry="6.521" transform="translate(219.027 233.187)" fill="#cf8662"/>
    </g>
    <g id="Ellipse_17-2" data-name="Ellipse 17" transform="translate(-5079.62 -18455.359)" fill="#fdae86" stroke="#cf8662" stroke-width="9">
      <circle cx="179.869" cy="179.869" r="179.869" stroke="none"/>
      <circle cx="179.869" cy="179.869" r="175.369" fill="none"/>
    </g>
    <path id="Path_5020-2" data-name="Path 5020" d="M-64.1,128.57a6.688,6.688,0,0,0-4.45-2.261l-46.371.216c-5.086-.427-5.549-1.342-9.493-4.164-.794-.568-4.33-3.781-6.321-10.841-1.293-4.581-1.293-12.428-1.293-17.177,0-17.315,1.18-32.139,0-42.23-48.483-2.578-100.244-.045-149.181-.291-28.249-.142-20.125,5.595-20.125,70.173l-.026,209.388c-.085,12.616-.592,9.071,0,15.346s-.234,7.525,2.369,9.756a12.129,12.129,0,0,0,8.293,3.367c41.006,2.18,210.966.486,226.785-.371-.245-.721,3.379-.147,3.359-4.571-.034-7.688-.628-50.6-.732-57.518-.594-39.851-2.314-132.729-.818-162.746.2-4.089-.384-3.993-2-6.077Z" transform="translate(-4714.2 -18490.738)" fill="#fafafc" stroke="#cf8662" stroke-width="5" fill-rule="evenodd"/>
    <g id="Group_340" data-name="Group 340" transform="translate(-4999.779 -18371.277)">
      <g id="Path_5039" data-name="Path 5039" transform="translate(0)" fill="#fdae86">
        <path d="M 241.9921264648438 250.0734252929688 C 241.6120452880859 250.0734252929688 241.2816162109375 250.0079498291016 240.9819030761719 249.8732452392578 C 234.4028778076172 246.9176330566406 226.7399444580078 241.1065216064453 217.5547332763672 232.1075286865234 C 209.4825134277344 224.1990203857422 201.6119079589844 215.1812438964844 194.6678009033203 207.2249908447266 C 189.5682373046875 201.3821258544922 185.1640930175781 196.3360595703125 181.4436645507813 192.5815582275391 C 176.5686187744141 187.6618499755859 173.6607360839844 185.7450561523438 171.072265625 185.7450561523438 C 170.1707611083984 185.7450561523438 169.3106994628906 185.9948425292969 168.5850219726563 186.4674224853516 C 160.6941986083984 191.6063842773438 149.7051239013672 196.6754913330078 138.4353790283203 200.3751373291016 C 132.5028076171875 202.3226623535156 126.6655883789063 203.8475189208984 121.0858764648438 204.9073181152344 C 115.1685485839844 206.0312347412109 109.6894454956055 206.6011352539063 104.8008041381836 206.6011352539063 C 97.89179992675781 206.6011352539063 90.98798370361328 205.9052734375 84.28119659423828 204.5328521728516 C 77.74640655517578 203.1956329345703 71.31855010986328 201.2003479003906 65.17626953125 198.6023864746094 C 59.14476776123047 196.05126953125 53.32719421386719 192.8935546875 47.88508605957031 189.2169494628906 C 42.4939079284668 185.5747680664063 37.4241943359375 181.391845703125 32.81676483154297 176.784423828125 C 28.20933723449707 172.1769866943359 24.02640914916992 167.1072692871094 20.38419532775879 161.7161254882813 C 16.70758819580078 156.2740325927734 13.54987335205078 150.4564514160156 10.99880218505859 144.4250183105469 C 8.400801658630371 138.2826995849609 6.405516147613525 131.8548889160156 5.068301677703857 125.3200988769531 C 3.695873260498047 118.6133499145508 3.000016212463379 111.7095642089844 3.000016212463379 104.8005599975586 C 3.000016212463379 97.89156341552734 3.695873260498047 90.98777770996094 5.068301677703857 84.28102874755859 C 6.405516147613525 77.74623870849609 8.400801658630371 71.31842041015625 10.99880218505859 65.17609405517578 C 13.54987335205078 59.14466857910156 16.70758819580078 53.32709884643555 20.38419532775879 47.88499069213867 C 24.02640914916992 42.49384689331055 28.20933723449707 37.42413330078125 32.81676483154297 32.81670379638672 C 37.4241943359375 28.20927619934082 42.4939079284668 24.02634620666504 47.88508605957031 20.38416862487793 C 53.32719421386719 16.70756149291992 59.14476776123047 13.54984664916992 65.17626953125 10.99874019622803 C 71.31855010986328 8.400775909423828 77.74640655517578 6.405489921569824 84.28119659423828 5.068275451660156 C 90.98798370361328 3.695847034454346 97.89179992675781 2.999989986419678 104.8008041381836 2.999989986419678 C 111.7098007202148 2.999989986419678 118.6135864257813 3.695847034454346 125.3203735351563 5.068275451660156 C 131.8551940917969 6.405489921569824 138.2830200195313 8.400775909423828 144.4253387451172 10.99874019622803 C 150.4568023681641 13.54984664916992 156.2743682861328 16.70756149291992 161.7164764404297 20.38416862487793 C 167.107666015625 24.02634620666504 172.1773681640625 28.20927619934082 176.7848358154297 32.81670379638672 C 181.3922729492188 37.42413330078125 185.5751953125 42.49384689331055 189.2173767089844 47.88499069213867 C 192.8940124511719 53.32709884643555 196.0516967773438 59.14466857910156 198.6027984619141 65.17609405517578 C 201.2008056640625 71.31842041015625 203.1960906982422 77.74623870849609 204.5332946777344 84.28102874755859 C 205.9057312011719 90.98777770996094 206.6015930175781 97.89156341552734 206.6015930175781 104.8005599975586 C 206.6015930175781 114.3747406005859 204.8052368164063 125.2679901123047 201.4067230224609 136.3026733398438 C 199.7919769287109 141.5455932617188 197.857666015625 146.6783447265625 195.6575469970703 151.5583038330078 C 193.4688415527344 156.4129943847656 191.0697021484375 160.9011383056641 188.5267639160156 164.8980560302734 C 187.0575103759766 167.2076263427734 188.9345550537109 169.6914215087891 189.6411590576172 170.6264495849609 C 190.537841796875 171.8129577636719 191.9198303222656 173.3473510742188 193.8661651611328 175.3173522949219 C 197.4119873046875 178.9062347412109 202.4635467529297 183.5804138183594 208.3127593994141 188.9926300048828 C 223.4656372070313 203.0133666992188 244.1867370605469 222.1858520507813 253.4620971679688 236.4846801757813 C 253.8003692626953 237.5460815429688 253.3234405517578 239.9008331298828 251.4417266845703 242.8133850097656 C 250.1290893554688 244.8451385498047 248.415771484375 246.7104949951172 246.6174163818359 248.0658416748047 C 244.8996887207031 249.3604125976563 243.2570495605469 250.0734252929688 241.9921264648438 250.0734252929688 Z" stroke="none"/>
        <path d="M 104.80078125 6.000015258789063 C 50.32182312011719 6.000015258789063 5.999984741210938 50.32174682617188 5.999984741210938 104.8005523681641 C 5.999984741210938 159.2793579101563 50.32182312011719 203.6011352539063 104.80078125 203.6011352539063 C 124.817626953125 203.6011352539063 152.1181335449219 193.6114807128906 166.9480590820313 183.9533996582031 L 169.2909393310547 182.7450866699219 L 171.0722503662109 182.7450866699219 C 177.0458374023438 182.7450866699219 182.9545288085938 189.2421569824219 196.927978515625 205.2522888183594 C 209.9799499511719 220.2066345214844 227.8552093505859 240.6872863769531 241.9921722412109 247.0733947753906 C 242.6007537841797 247.0733947753906 244.6201782226563 246.2458190917969 246.9780578613281 243.687744140625 C 249.3492431640625 241.115234375 250.4057922363281 238.5790252685547 250.546142578125 237.5098876953125 C 241.2848052978516 223.5885620117188 221.0955200195313 204.9075469970703 206.2753295898438 191.1946258544922 C 186.4585876464844 172.8584289550781 182.3346710205078 169.0426330566406 185.99560546875 163.2876586914063 C 196.5262908935547 146.7357482910156 203.6015930175781 123.2315521240234 203.6015930175781 104.8005523681641 C 203.6015930175781 50.32174682617188 159.2797546386719 6.000015258789063 104.80078125 6.000015258789063 M 104.80078125 1.52587890625e-05 C 162.6806640625 1.52587890625e-05 209.6015930175781 46.92082214355469 209.6015930175781 104.8005523681641 C 209.6015930175781 125.4150085449219 201.575439453125 149.9771270751953 191.0579071044922 166.5083923339844 C 188.7729034423828 170.1004028320313 239.7519836425781 209.5842437744141 256.1397094726563 235.1011657714844 C 258.9599304199219 241.3564300537109 246.9398345947266 255.8403930664063 239.7519836425781 252.6095123291016 C 212.0179443359375 240.1501617431641 176.8147430419922 184.6882629394531 170.2220611572266 188.9813995361328 C 154.1128997802734 199.4725952148438 125.8690643310547 209.6011352539063 104.80078125 209.6011352539063 C 46.9208984375 209.6011352539063 -3.0517578125e-05 162.6802825927734 -3.0517578125e-05 104.8005523681641 C -3.0517578125e-05 46.92082214355469 46.9208984375 1.52587890625e-05 104.80078125 1.52587890625e-05 Z" stroke="none" fill="#cf8662"/>
      </g>
      <g id="Ellipse_23" data-name="Ellipse 23" transform="matrix(0.996, -0.087, 0.087, 0.996, 15.287, 30.858)" fill="#fff" stroke="#cf8662" stroke-width="6">
        <ellipse cx="82.766" cy="82.766" rx="82.766" ry="82.766" stroke="none"/>
        <ellipse cx="82.766" cy="82.766" rx="79.766" ry="79.766" fill="none"/>
      </g>
    </g>
    <path id="Path_5009-2" data-name="Path 5009" d="M-263.926,107.1c.141-7.735,1.1-7.176-4.688-7.589-.131-2.951.8-4.9-.52-5.246a14.317,14.317,0,0,0-7.719,1.4c-2.91,1.558-3,2.454-3.921,4.828-2.006,5.172-1.945,13.413,10.02,11.217,4.257-.781,5.262-3.011,6.827-4.611Z" transform="translate(-4655.067 -18367.123)" fill="#cf8662" fill-rule="evenodd"/>
    <path id="Path_5010-2" data-name="Path 5010" d="M-260.485,110c4.488,1.144,8.019,1.172,11.828-1.172s3.519-6.806,3.41-8.2c-.092-1.508-2.616-.818-6.294-1.077-.089-2.016-.032-4.279-1.591-5-2.176-1.033-6.794,1.022-6.794,1.022a10.848,10.848,0,0,0-5.034,6.97c-.345,1.914-.012,6.315,4.475,7.459Z" transform="translate(-4607.717 -18367.137)" fill="#cf8662" fill-rule="evenodd"/>
    <path id="Path_5012-2" data-name="Path 5012" d="M-282.854,101.56c5.93-.462,14.481-3.656,16.407-4.991a6.41,6.41,0,0,0,.761-.5c2.4-2.335,1.829-3.628,1.991-5.353-11.09-.621-8.251,1.91-10.423,3.276-2.921,1.837-5.358.805-7.739,4.907l-1,2.665Z" transform="translate(-4662.14 -18380.9)" fill="#cf8662" fill-rule="evenodd"/>
    <path id="Path_5013-2" data-name="Path 5013" d="M-262.195,93.192c1.846,3.92-.562,1.2,3.018,3.649,5.2,3.564,12.193,3.7,12.193,3.7a11.029,11.029,0,0,0,3.74,0,2.756,2.756,0,0,0,1.807-1.573c-7.7-1.222-13.536-6.729-13.566-6.747C-262.569,87.718-261.942,92.988-262.195,93.192Z" transform="translate(-4600.545 -18380.059)" fill="#cf8662" fill-rule="evenodd"/>
    <g id="Group_327-2" data-name="Group 327" transform="translate(-5126.93 -18483.137)">
      <path id="Path_5018-2" data-name="Path 5018" d="M.246,19.895c2.49,18.14,34.334,16.72,31.629-5.663C29.385-6.37-3.132-4.708.246,19.895Z" transform="matrix(0.966, 0.259, -0.259, 0.966, 8.379, 200.399)" fill="#fdae86" fill-rule="evenodd"/>
      <path id="Path_5017-2" data-name="Path 5017" d="M.111,8.968c1.122,8.177,15.477,7.537,14.258-2.553C13.246-2.872-1.412-2.122.111,8.968Z" transform="matrix(0.966, 0.259, -0.259, 0.966, 70.189, 49.416)" fill="#fdae86" fill-rule="evenodd"/>
      <path id="Path_5016-2" data-name="Path 5016" d="M6.73,2.552C2.126,5.717-2.888,9.643,2.016,18.49a12.733,12.733,0,0,0,18.216,4.027C33.945,13.195,20.816-7.13,6.73,2.552Z" transform="matrix(0.966, 0.259, -0.259, 0.966, 367.031, 37.899)" fill="#fdae86" fill-rule="evenodd"/>
      <path id="Path_5015-2" data-name="Path 5015" d="M4.341,1.646C1.371,3.688-1.863,6.221,1.3,11.928a8.214,8.214,0,0,0,11.751,2.6C21.9,8.512,13.429-4.6,4.341,1.646Z" transform="matrix(0.966, 0.259, -0.259, 0.966, 390.829, 0)" fill="#fdae86" fill-rule="evenodd"/>
    </g>
    <path id="Path_5022-2" data-name="Path 5022" d="M8.344,0H114.856a4.347,4.347,0,1,1,0,8.695H8.344A4.347,4.347,0,0,1,8.344,0Z" transform="translate(-4987.98 -18403.191)" fill="#cf8662"/>
    <path id="Path_5021-2" data-name="Path 5021" d="M7.252,0H52.993a4.347,4.347,0,0,1,0,8.695H7.252A4.347,4.347,0,0,1,7.252,0Z" transform="translate(-4988.075 -18380.369)" fill="#cf8662"/>
    <path id="Path_5025-2" data-name="Path 5025" d="M-11.588-39.77,57.022,33.523c2.4,0,0,.121,0,2.522s-22.27-2.522-24.671-2.522L-2.4,32.262c-2.4,0-10.8-26.408-10.8-28.809S-13.989-39.77-11.588-39.77Z" transform="translate(-4833.509 -18397.949)" fill="#cf8662"/>
    <path id="Path_5023-2" data-name="Path 5023" d="M7.252,0H39.657A4.347,4.347,0,0,1,44,4.347c0,2.4,9.05,4.347,6.649,4.347H7.252A4.347,4.347,0,0,1,7.252,0Z" transform="translate(-4988.075 -18180.52)" fill="#cf8662"/>
    <ellipse id="Ellipse_18-2" data-name="Ellipse 18" cx="13.042" cy="6.521" rx="13.042" ry="6.521" transform="translate(-4907.903 -18249.951)" fill="#cf8662"/>
  </g>
</svg>
