<svg xmlns="http://www.w3.org/2000/svg" width="408.607" height="409.514" viewBox="0 0 408.607 409.514">
  <g id="Group_349" data-name="Group 349" transform="translate(9079.052 21854.359)">
    <g id="Ellipse_31" data-name="Ellipse 31" transform="translate(-9021.064 -21793.906)" fill="#ffc1a2" stroke="#cf8662" stroke-width="7">
      <circle cx="174.53" cy="174.53" r="174.53" stroke="none"/>
      <circle cx="174.53" cy="174.53" r="171.03" fill="none"/>
    </g>
    <path id="Path_5052" data-name="Path 5052" d="M.239,19.363c2.423,17.655,33.416,16.273,30.783-5.512C28.6-6.2-3.048-4.582.239,19.363Z" transform="matrix(0.966, 0.259, -0.259, 0.966, -9070.896, -21635.225)" fill="#fdae86" fill-rule="evenodd"/>
    <path id="Path_5051" data-name="Path 5051" d="M.108,8.728C1.2,16.687,15.171,16.064,13.984,6.244,12.892-2.795-1.374-2.066.108,8.728Z" transform="matrix(0.966, 0.259, -0.259, 0.966, -9010.74, -21782.172)" fill="#fdae86" fill-rule="evenodd"/>
    <path id="Path_5046" data-name="Path 5046" d="M6.55,2.484C2.069,5.564-2.81,9.385,1.962,18a12.393,12.393,0,0,0,17.729,3.919C33.037,12.842,20.26-6.939,6.55,2.484Z" transform="matrix(0.966, 0.259, -0.259, 0.966, -8721.834, -21793.385)" fill="#fdae86" fill-rule="evenodd"/>
    <path id="Path_5047" data-name="Path 5047" d="M4.225,1.6C1.335,3.589-1.813,6.055,1.266,11.609A8,8,0,0,0,12.7,14.137C21.313,8.285,13.07-4.476,4.225,1.6Z" transform="matrix(0.966, 0.259, -0.259, 0.966, -8698.674, -21830.27)" fill="#fdae86" fill-rule="evenodd"/>
    <path id="Path_5048" data-name="Path 5048" d="M-77.1,100.623c4.941-.277,3.319-13.988,3.319-26.512s.622-23.888-3.319-23.584-3.268,11.06-3.268,23.584S-82.039,100.9-77.1,100.623Z" transform="translate(-8769.396 -21904.879)" fill="#cf8662" fill-rule="evenodd"/>
    <path id="Path_5049" data-name="Path 5049" d="M-68.57,93.5c4.252,1.488,5.538-7.689,10.982-16.975,3.009-7.95,10.07-21.293,7.212-22.055s-6.412,5.894-11.556,16.835S-72.821,92.012-68.57,93.5Z" transform="translate(-8745.671 -21894.23)" fill="#cf8662" fill-rule="evenodd"/>
    <path id="Path_5050" data-name="Path 5050" d="M-78.619,81.113c2.8-1.14-1.606-6.973-5.185-11.927s-6.223-9.437-9.132-7.888.782,6.151,4.361,11.1,7.155,9.85,9.956,8.71Z" transform="translate(-8803.238 -21875.934)" fill="#cf8662" fill-rule="evenodd"/>
    <g id="Path_5045" data-name="Path 5045" transform="translate(-8855.144 -21848.053)" fill="#fcfcfc" fill-rule="evenodd">
      <path d="M 7.722038745880127 387.8224182128906 L 6.309138774871826 384.1970825195313 C -13.13761138916016 334.2989807128906 -56.20791244506836 309.2224731445313 -94.20811462402344 287.0979309082031 C -106.9607086181641 279.6730651855469 -119.0061111450195 272.6599731445313 -129.4446563720703 265.1331176757813 C -135.0859680175781 261.0653686523438 -139.7959594726563 257.1822814941406 -143.8437652587891 253.2618713378906 C -148.4009552001953 248.8481140136719 -152.0450592041016 244.4662170410156 -154.9843139648438 239.8657684326172 C -162.1983184814453 228.5744171142578 -166.7668609619141 216.1334686279297 -168.5630645751953 202.8885650634766 C -169.3934173583984 196.7656707763672 -169.6220550537109 190.4628143310547 -169.2426605224609 184.1551208496094 C -168.8794097900391 178.1152191162109 -167.9558563232422 172.0113677978516 -166.4976043701172 166.0130615234375 C -165.0902099609375 160.2237701416016 -163.1771545410156 154.4985198974609 -160.8117065429688 148.9963684082031 C -158.5022125244141 143.62451171875 -155.7570648193359 138.4535675048828 -152.6524658203125 133.6271209716797 C -149.5768585205078 128.8457641601563 -146.1501159667969 124.4044189453125 -142.4673614501953 120.4264144897461 C -138.7577667236328 116.4194641113281 -134.7919616699219 112.8866653442383 -130.6801605224609 109.9262161254883 C -121.6452102661133 103.4211196899414 -111.3915634155273 98.48411560058594 -100.2039642333984 95.25241851806641 C -95.17101287841797 93.79856872558594 -89.95011138916016 92.69676971435547 -84.68621063232422 91.97756958007813 C -79.74056243896484 91.30186462402344 -74.72950744628906 90.95926666259766 -69.79221343994141 90.95926666259766 C -63.17795944213867 90.95926666259766 -56.82295989990234 91.56141662597656 -50.90381240844727 92.74891662597656 C -45.17560958862305 93.89811706542969 -40.17016220092773 95.52841949462891 -36.02646255493164 97.59446716308594 C -25.99481201171875 102.596321105957 -19.17566108703613 106.8161697387695 -13.22501087188721 111.7045211791992 C -7.881818771362305 116.093864440918 -3.017602920532227 121.1812591552734 2.603089809417725 128.3067321777344 C 5.014477252960205 124.6325531005859 7.721884727478027 121.1492462158203 10.68443870544434 117.9124145507813 C 14.17343902587891 114.1004180908203 18.1121883392334 110.5265655517578 22.39133834838867 107.2901153564453 C 30.97858810424805 100.7952194213867 39.51268768310547 96.69261932373047 45.18494033813477 94.17171478271484 C 45.59338760375977 93.99021911621094 46.02488708496094 93.79696655273438 46.47893905639648 93.59371948242188 C 50.831787109375 91.64476776123047 57.40983963012695 88.69956970214844 65.53583526611328 86.26346588134766 C 70.01528930664063 84.92061614990234 74.51343536376953 83.87236785888672 78.90538787841797 83.14786529541016 C 84.07103729248047 82.29576873779297 89.25244140625 81.86371612548828 94.30568695068359 81.86371612548828 C 101.7004852294922 81.86371612548828 109.0486907958984 82.78776550292969 116.1461410522461 84.61011505126953 C 124.1814880371094 86.67331695556641 132.0937347412109 89.93886566162109 139.6630859375 94.31616973876953 C 150.0320434570313 100.312370300293 158.7696838378906 108.5947189331055 165.6332397460938 118.9331207275391 C 168.8549957275391 123.7858657836914 171.6532440185547 129.0965728759766 173.9502868652344 134.7176208496094 C 176.1800384521484 140.1740112304688 177.9605407714844 145.9779205322266 179.2422943115234 151.9681243896484 C 180.4980316162109 157.8367614746094 181.2854461669922 163.9304656982422 181.5824890136719 170.0799102783203 C 181.8767852783203 176.1713104248047 181.6920318603516 182.3562164306641 181.0334930419922 188.4628601074219 C 180.3733367919922 194.5838165283203 179.2330932617188 200.6630249023438 177.6443939208984 206.5315704345703 C 176.0333862304688 212.4825134277344 173.9497833251953 218.2582244873047 171.4514923095703 223.6982116699219 C 165.8769836425781 235.8364715576172 160.2337951660156 246.0519714355469 153.6919860839844 255.8468627929688 C 146.0400390625 267.3040161132813 136.8484954833984 278.6189575195313 125.5921859741211 290.4382629394531 C 113.3794860839844 303.2617797851563 98.56703948974609 316.8790283203125 80.30834197998047 332.068115234375 C 61.23588943481445 347.9341735839844 38.52203750610352 365.4229736328125 10.86883926391602 385.5339050292969 L 7.722038745880127 387.8224182128906 Z" stroke="none"/>
      <path d="M 94.30569458007813 84.86373901367188 C 72.21665191650391 84.86322021484375 54.63967895507813 93.25274658203125 46.40336608886719 96.91317749023438 C 33.19689178466797 102.7825012207031 14.91336536407471 112.8772888183594 2.874154567718506 133.5697021484375 C -9.918107986450195 116.639404296875 -18.92974090576172 109.4712524414063 -37.36510848999023 100.2792358398438 C -55.80047607421875 91.08721923828125 -97.1346435546875 89.47027587890625 -128.9272613525391 112.3608093261719 C -160.7199554443359 135.2514038085938 -181.7056884765625 192.4695129394531 -152.4562072753906 238.2505645751953 C -123.2067413330078 284.0316772460938 -23.86837196350098 298.5035095214844 9.104365348815918 383.107666015625 C 120.7676773071289 301.8999328613281 149.0751037597656 265.2337036132813 168.7252044677734 222.4461822509766 C 188.3753662109375 179.6585998535156 179.4856262207031 120.8105163574219 138.1612548828125 96.91317749023438 C 122.6091537475586 87.91961669921875 107.6352233886719 84.86407470703125 94.30569458007813 84.86373901367188 M 94.30342102050781 78.86376953125 L 94.30352020263672 78.86376953125 C 110.6483154296875 78.8641357421875 126.4147872924805 83.18936157226563 141.1648864746094 91.71914672851563 C 187.1394195556641 118.3055419921875 194.0971069335938 181.5763854980469 174.1776885986328 224.9502410888672 C 153.3569946289063 270.2866821289063 122.6560516357422 307.945556640625 12.63336563110352 387.9601440429688 L 6.339733600616455 392.5372009277344 L 3.513944149017334 385.2864074707031 C -15.55242347717285 336.3644409179688 -58.14173889160156 311.5679931640625 -95.717529296875 289.6904907226563 C -121.0971069335938 274.9139709472656 -145.0692138671875 260.9569091796875 -157.5123748779297 241.4809265136719 C -187.4095306396484 194.6860961914063 -168.2907867431641 133.3089904785156 -132.4330596923828 107.4916076660156 C -114.9390563964844 94.89596557617188 -92.69274139404297 87.959228515625 -69.79216003417969 87.959228515625 C -56.34184646606445 87.959228515625 -43.54679107666016 90.4925537109375 -34.68784713745117 94.90966796875 C -17.65701675415039 103.4013366699219 -8.249672889709473 110.4135131835938 2.414188861846924 123.2947082519531 C 15.15507316589355 105.7417297363281 31.91037750244141 96.78839111328125 43.96662902832031 91.4302978515625 L 45.25341796875 90.85543823242188 C 53.94683837890625 86.963134765625 72.03636169433594 78.86376953125 94.30342102050781 78.86376953125 Z" stroke="none" fill="#cf8662"/>
    </g>
    <g id="Group_348" data-name="Group 348" transform="translate(-8936.712 -21678.414)">
      <path id="Path_5010" data-name="Path 5010" d="M-254.239,123.483c7.946,2.11,11.454,1.978,18.2-2.346S-229.81,108.581-230,106c-.163-2.782-7.449.478-13.961,0-.157-3.72,2.76-9.882,0-11.208-3.853-1.906-12.029,1.886-12.029,1.886s-7.451,4.278-8.913,12.858c-.61,3.531,2.721,11.835,10.667,13.945Z" transform="translate(379.416 -70.573)" fill="#cf8662" fill-rule="evenodd"/>
      <path id="Path_5056" data-name="Path 5056" d="M-254.239,123.483c7.946,2.11,11.454,1.978,18.2-2.346S-229.81,108.581-230,106c-.163-2.782-7.449.478-13.961,0-.157-3.72,2.76-9.882,0-11.208-3.853-1.906-12.029,1.886-12.029,1.886s-7.451,4.278-8.913,12.858c-.61,3.531,2.721,11.835,10.667,13.945Z" transform="translate(289.561 -70.573)" fill="#cf8662" fill-rule="evenodd"/>
      <path id="Path_5013" data-name="Path 5013" d="M-262.2,94.867c2.956,6.279,1.31.917,7.042,4.847a44.9,44.9,0,0,0,17.319,6.93s3.769.63,5.991,0a4.414,4.414,0,0,0,2.894-2.519c-12.34-1.957-21.68-10.778-21.729-10.806C-262.795,86.1-261.79,94.541-262.2,94.867Z" transform="translate(402.877 -88.497)" fill="#cf8662" fill-rule="evenodd"/>
      <path id="Path_5060" data-name="Path 5060" d="M-228.948,94.867c-2.956,6.279-1.31.917-7.043,4.847a44.9,44.9,0,0,1-17.32,6.93s-3.769.63-5.991,0a4.414,4.414,0,0,1-2.894-2.519c12.34-1.957,21.68-10.778,21.729-10.806C-228.348,86.1-229.353,94.541-228.948,94.867Z" transform="translate(262.195 -90.408)" fill="#cf8662" fill-rule="evenodd"/>
      <path id="Path_5053" data-name="Path 5053" d="M32.39,8.071c16.067-.268,31.876,13.4,31.876,9.385S51.4-.037,32.39,0,0,13.444,0,17.456,16.322,8.339,32.39,8.071Z" transform="translate(123.125 117.213) rotate(180)" fill="#cf8662"/>
      <path id="Path_5054" data-name="Path 5054" d="M10.956,2.5c3.848,0,10.48-4.237,10.48-1.684s-6.632,6.82-10.48,6.82S0,3.371,0,.818,7.108,2.5,10.956,2.5Z" transform="translate(117.199 90.953) rotate(39)" fill="#cf8662"/>
      <path id="Path_5055" data-name="Path 5055" d="M7.674,1.877c2.7,0,7.341-3.179,7.341-1.263S10.37,5.73,7.674,5.73,0,2.529,0,.614,4.979,1.877,7.674,1.877Z" transform="matrix(0.695, -0.719, 0.719, 0.695, 48.667, 104.791)" fill="#cf8662"/>
    </g>
    <path id="Path_5058" data-name="Path 5058" d="M.046,3.721C.512,7.113,6.467,6.847,5.961,2.662A3.01,3.01,0,1,0,.046,3.721Z" transform="matrix(0.966, 0.259, -0.259, 0.966, -8741.358, -21621.465)" fill="#fdae86" fill-rule="evenodd"/>
    <path id="Path_5062" data-name="Path 5062" d="M.046,3.721C.512,7.113,6.467,6.847,5.961,2.662A3.01,3.01,0,1,0,.046,3.721Z" transform="matrix(0.966, 0.259, -0.259, 0.966, -8943.606, -21621.598)" fill="#fdae86" fill-rule="evenodd"/>
    <path id="Path_5061" data-name="Path 5061" d="M.046,3.721C.512,7.113,6.467,6.847,5.961,2.662A3.01,3.01,0,1,0,.046,3.721Z" transform="matrix(0.966, 0.259, -0.259, 0.966, -8749.82, -21632.041)" fill="#fdae86" fill-rule="evenodd"/>
    <path id="Path_5063" data-name="Path 5063" d="M.046,3.721C.512,7.113,6.467,6.847,5.961,2.662A3.01,3.01,0,1,0,.046,3.721Z" transform="matrix(0.966, 0.259, -0.259, 0.966, -8952.069, -21632.176)" fill="#fdae86" fill-rule="evenodd"/>
    <path id="Path_5059" data-name="Path 5059" d="M.046,3.721C.512,7.113,6.467,6.847,5.961,2.662A3.01,3.01,0,1,0,.046,3.721Z" transform="matrix(0.966, 0.259, -0.259, 0.966, -8758.283, -21621.33)" fill="#fdae86" fill-rule="evenodd"/>
    <path id="Path_5064" data-name="Path 5064" d="M.046,3.721C.512,7.113,6.467,6.847,5.961,2.662A3.01,3.01,0,1,0,.046,3.721Z" transform="matrix(0.966, 0.259, -0.259, 0.966, -8960.531, -21621.467)" fill="#fdae86" fill-rule="evenodd"/>
  </g>
</svg>
